<svg width="15" height="15" fill="none" xmlns="http://www.w3.org/2000/svg"><path d="M7.5.25a7.25 7.25 0 00-2.292 14.13c.363.066.495-.158.495-.35 0-.172-.006-.628-.01-1.233-2.016.438-2.442-.972-2.442-.972-.33-.838-.805-1.06-.805-1.06-.658-.45.05-.441.05-.441.728.051 1.11.747 1.11.747.647 1.108 1.697.788 2.11.602.066-.468.254-.788.46-.969-1.61-.183-3.302-.805-3.302-3.583 0-.792.283-1.439.747-1.945-.075-.184-.324-.92.07-1.92 0 0 .61-.194 1.994.744A6.963 6.963 0 017.5 3.756 6.97 6.97 0 019.315 4c1.384-.938 1.992-.743 1.992-.743.396.998.147 1.735.073 1.919.464.507.745 1.153.745 1.945 0 2.785-1.696 3.398-3.31 3.577.26.224.491.667.491 1.343 0 .97-.009 1.751-.009 1.989 0 .194.131.42.499.349A7.25 7.25 0 007.499.25z" clip-rule="evenodd" fill="#252b2d" fill-rule="evenodd"/></svg>